Coordinates
version=1
nRows=29
nColumns=24
inDegrees=yes

Units are S.I. units (second, meters, Newtons, ...)
Angles are in degrees.

endheader
time	pelvis_tilt	pelvis_list	pelvis_rotation	pelvis_tx	pelvis_ty	pelvis_tz	hip_flexion_r	hip_adduction_r	hip_rotation_r	knee_angle_r	ankle_angle_r	subtalar_angle_r	mtp_angle_r	hip_flexion_l	hip_adduction_l	hip_rotation_l	knee_angle_l	ankle_angle_l	subtalar_angle_l	mtp_angle_l	lumbar_extension	lumbar_bending	lumbar_rotation
      4.91000000	     -8.85608769	     -2.15001211	      6.05485656	     -1.17532994	     -0.03561159	      2.02504996	     33.82449689	      0.02523171	    -16.77637115	    -10.28780175	     -1.58859826	      4.52277305	     17.50123372	     -5.74276365	     -0.45785000	     -5.77094527	    -15.53608224	     12.12248096	      6.05865389	     10.66699714	      3.25164045	      1.84060802	     -8.26033703
      4.92000000	     -8.87240583	     -2.53234086	      6.19846578	     -1.16094082	     -0.03707564	      2.02631515	     33.99031347	      0.36647171	    -16.31634106	    -12.04507511	     -1.91641827	      2.96516180	     11.59720316	     -5.69964217	     -1.29608413	     -5.66960789	    -17.18690542	     11.45855027	      6.89394797	     12.00679387	      3.50390733	      2.20838209	     -8.36836880
      4.93000000	     -8.85725551	     -3.13368389	      6.23731006	     -1.14643939	     -0.03814066	      2.02777248	     33.99737359	      1.02111995	    -15.88489042	    -13.42921666	     -2.80842067	      1.35306693	      5.43400865	     -5.54507919	     -2.39159739	     -5.71584670	    -19.05586025	     10.62591731	      7.76325708	     13.02070028	      3.75475942	      2.81903058	     -8.41430057
      4.94000000	     -8.96615197	     -3.89683369	      6.14688127	     -1.13190906	     -0.03889778	      2.02941390	     34.09994824	      1.88922946	    -15.57082648	    -14.54979676	     -4.09351136	     -0.08931770	      0.12254136	     -5.07813661	     -3.67650059	     -6.00947676	    -21.16953389	      9.38702218	      8.66042361	     14.64210604	      4.15322977	      3.60162046	     -8.38299328
      4.95000000	     -9.07843173	     -4.72616978	      5.92422201	     -1.11740375	     -0.03928006	      2.03116330	     34.21587420	      2.88567352	    -15.38228053	    -15.50066591	     -6.09192084	     -1.60378694	     -0.66295083	     -4.42646767	     -5.04080840	     -6.47060591	    -23.58487333	      7.91701706	      9.52079578	     15.16468547	      4.54482613	      4.48269835	     -8.23237909
      4.96000000	     -9.22238644	     -5.48703244	      5.69025113	     -1.10286141	     -0.03925966	      2.03286610	     34.39478724	      3.81100280	    -15.24020591	    -16.55560456	     -7.78971544	     -2.93233702	     -0.96209471	     -3.58981590	     -6.33466032	     -6.97059602	    -26.03945308	      5.17478225	      9.80713014	     18.73058529	      4.96619998	      5.29992922	     -8.17757583
      4.97000000	     -9.34777596	     -6.17504787	      5.45640769	     -1.08824245	     -0.03907975	      2.03459001	     34.54344818	      4.66921156	    -15.23873853	    -17.68865387	     -9.26936864	     -4.22844108	      1.34507279	     -2.57151933	     -7.58848362	     -7.49991879	    -28.72057400	      1.85222187	      9.90696723	     22.49006216	      5.37493012	      6.04086401	     -8.13139839
      4.98000000	     -9.45241848	     -6.78636309	      5.24058600	     -1.07363738	     -0.03881538	      2.03634295	     34.58361023	      5.47104173	    -15.27238096	    -18.80345099	    -10.20582043	     -5.44631719	      4.82396802	     -1.37153287	     -8.77556853	     -7.93255244	    -31.55906661	     -2.13181873	      9.58388304	     26.73379059	      5.74597882	      6.69191820	     -8.17317491
      4.99000000	     -9.44595943	     -7.49468631	      5.06675409	     -1.05907596	     -0.03839847	      2.03814440	     34.33719233	      6.41447943	    -15.31797562	    -19.71530092	    -10.47927288	     -6.49727276	      7.70626128	     -0.07069205	    -10.09314409	     -8.18943987	    -34.55238068	     -6.52874633	      8.94102415	     31.01016719	      6.01288448	      7.43663713	     -8.22806257
      5.00000000	     -9.72147240	     -8.10087356	      4.78270234	     -1.04497506	     -0.03829808	      2.04021014	     34.31188694	      7.33829508	    -15.04449256	    -20.57781925	    -10.00401972	     -7.28119812	      8.64580033	      1.74819702	    -11.21364000	     -8.19137830	    -37.71154660	    -11.16497422	      7.66579997	     34.83214136	      6.50026183	      8.03450349	     -8.19131731
      5.01000000	     -9.86905809	     -9.00191896	      4.55138246	     -1.03105573	     -0.03809332	      2.04226637	     33.95825774	      8.59735311	    -14.83118605	    -21.05665074	     -9.26403344	     -7.91413473	      8.41427704	      3.61726285	    -12.62893582	     -7.87972553	    -40.94884044	    -15.55455047	      6.15247747	     38.69065985	      6.86875689	      8.93481973	     -8.22300850
      5.02000000	    -10.16419905	     -9.86860998	      4.20508253	     -1.01751979	     -0.03806451	      2.04440771	     33.66940531	      9.86690211	    -14.56220913	    -21.38518821	     -8.28727143	     -8.26127999	      7.47775708	      5.74267134	    -13.90231723	     -7.39881601	    -44.22492567	    -19.32356749	      4.28577435	     41.32322800	      7.32319251	      9.80286696	     -8.09516893
      5.03000000	    -10.39814826	    -10.86436817	      3.96331051	     -1.00427088	     -0.03800218	      2.04629221	     33.21066938	     11.17362610	    -14.66455026	    -21.46034312	     -7.34912783	     -8.33792504	      7.03930638	      7.95456891	    -15.22758153	     -6.63343658	    -47.56903161	    -21.86067064	      2.48524603	     42.11728861	      7.70905828	     10.80109055	     -8.06740116
      5.04000000	    -10.40687525	    -11.66887697	      3.65467754	     -0.99119672	     -0.03744550	      2.04817673	     32.38739979	     12.36504166	    -14.71825758	    -21.34746698	     -6.54103358	     -8.35864431	      6.98580021	      9.83348084	    -16.26052243	     -5.91185677	    -50.60991432	    -23.58623870	      0.48127410	     42.25832633	      7.78633401	     11.63274502	     -7.83394143
      5.05000000	    -10.52875771	    -12.35126332	      3.36011862	     -0.97822827	     -0.03689532	      2.04991097	     31.63291188	     13.34226163	    -15.02111315	    -21.19785901	     -5.59653331	     -7.90357079	      7.31915200	     11.83672953	    -17.05635643	     -5.09597305	    -53.46246599	    -24.19213424	     -1.30562391	     42.25983020	      7.97727844	     12.33415126	     -7.57306286
      5.06000000	    -10.47416315	    -12.82586344	      3.22340343	     -0.96552879	     -0.03585994	      2.05138122	     30.62977555	     14.04530277	    -15.40931460	    -20.95761587	     -4.73118476	     -7.35042164	      8.04470221	     13.67073552	    -17.48468666	     -4.13158273	    -56.01462745	    -24.06519039	     -3.04539421	     41.78899712	      7.95351182	     12.80560712	     -7.36699832
      5.07000000	    -10.32765675	    -13.09891175	      3.04410019	     -0.95292893	     -0.03449284	      2.05269318	     29.41794307	     14.55298020	    -15.75643437	    -20.53439959	     -4.41866257	     -6.81988545	     12.47399414	     15.34691747	    -17.59756432	     -3.24081979	    -58.33434036	    -22.98302872	     -4.25964157	     39.13428252	      7.79591075	     13.10961147	     -6.94628611
      5.08000000	    -10.23526929	    -13.26967192	      2.99962450	     -0.94059977	     -0.03302353	      2.05396669	     28.26944255	     14.95257926	    -15.81076900	    -20.16672732	     -3.61072573	     -6.24273258	     12.98165532	     17.13900037	    -17.49673878	     -2.20563297	    -60.24662723	    -22.15080644	     -5.50325105	     38.92751979	      7.69427163	     13.25303356	     -6.67388878
      5.09000000	    -10.12564371	    -13.34132395	      2.90364804	     -0.92841085	     -0.03145948	      2.05524773	     27.02909901	     15.32344899	    -15.55352903	    -19.67902571	     -3.00084177	     -5.89035990	     14.00299863	     18.88747924	    -17.24830245	     -1.27449905	    -61.89579568	    -21.00352098	     -6.28828761	     37.50896020	      7.54318280	     13.30441462	     -6.23894511
      5.10000000	     -9.87475108	    -13.41986457	      2.90512858	     -0.91630041	     -0.02972470	      2.05647783	     25.56178315	     15.74209735	    -15.11046382	    -19.02344435	     -2.43344426	     -5.76186097	     14.02422658	     20.47770415	    -16.97376234	     -0.30557123	    -63.13970767	    -20.07774520	     -6.88038004	     37.67639553	      7.25845356	     13.34339277	     -5.87577471
      5.11000000	     -9.64864901	    -13.44468654	      2.93518957	     -0.90430495	     -0.02808515	      2.05762659	     24.08863291	     16.10145854	    -14.63699501	    -18.29850570	     -1.91533871	     -5.72044669	     13.87415757	     22.06994174	    -16.58806556	      0.65767831	    -64.07668738	    -19.03204601	     -7.13055278	     38.01402533	      6.99674489	     13.31894694	     -5.52547298
      5.12000000	     -9.37678856	    -13.39857082	      3.01723109	     -0.89238466	     -0.02642267	      2.05871880	     22.54198625	     16.38765648	    -14.13561055	    -17.53802506	     -1.30273179	     -5.70019754	     12.54531458	     23.53392644	    -16.08467852	      1.58368416	    -64.60168263	    -18.12759807	     -7.34819526	     39.65887642	      6.69316955	     13.21162570	     -5.25153838
      5.13000000	     -9.17616164	    -13.29606909	      3.08600259	     -0.88052273	     -0.02491344	      2.05974218	     21.04112430	     16.59059278	    -13.71994091	    -16.70577228	     -0.84889569	     -5.67996379	     12.07973540	     24.99098578	    -15.46769073	      2.46573431	    -64.84457541	    -16.89270920	     -7.25190401	     40.72818581	      6.45292262	     13.05114748	     -4.93095227
      5.14000000	     -9.04750305	    -13.07799763	      3.07447507	     -0.86875988	     -0.02353298	      2.06077848	     19.62132856	     16.65776720	    -13.31401086	    -15.92544778	     -0.38099945	     -5.51255140	     12.02130785	     26.38054018	    -14.72347034	      3.17610310	    -64.77074029	    -15.39082700	     -7.00254273	     41.41467646	      6.25704625	     12.78704382	     -4.55024949
      5.15000000	     -8.89061276	    -12.77777189	      3.13919004	     -0.85707629	     -0.02212712	      2.06171082	     18.15969071	     16.60813968	    -12.95011489	    -15.10473349	      0.02965128	     -5.36222414	     11.96148506	     27.63152155	    -13.84186305	      3.85920136	    -64.33700495	    -13.84616519	     -6.79382173	     42.25070421	      6.03474767	     12.42671491	     -4.29465907
      5.16000000	     -8.79914769	    -12.39108053	      3.16773884	     -0.84549898	     -0.02082110	      2.06267064	     16.77929053	     16.45348141	    -12.56945985	    -14.31779633	      0.44689429	     -5.17355911	     11.95002005	     28.82658732	    -12.87391196	      4.41307647	    -63.58615311	    -12.32325452	     -6.67501628	     42.82556030	      5.85705938	     11.97474024	     -4.01808234
      5.17000000	     -8.71425574	    -11.97339177	      3.17549893	     -0.83397528	     -0.01959037	      2.06364104	     15.40896633	     16.25547538	    -12.19466307	    -13.53501801	      0.83334656	     -4.94653849	     11.94834849	     29.91814789	    -11.90348764	      4.84723412	    -62.54633535	    -10.87654776	     -6.65329142	     43.06083199	      5.67464194	     11.49329747	     -3.75844149
      5.18000000	     -8.59102728	    -11.52035669	      3.15917030	     -0.82250123	     -0.01840093	      2.06457953	     13.99941315	     16.01334153	    -11.79722064	    -12.76080414	      1.20958571	     -4.70146179	     11.82111050	     30.86486840	    -10.93777965	      5.13786128	    -61.26938876	     -9.51431388	     -6.71718452	     42.13204741	      5.43631360	     10.98368189	     -3.47975244
      5.19000000	     -8.44699780	    -11.07033836	      3.13525963	     -0.81108069	     -0.01733499	      2.06549953	     12.58487464	     15.76235235	    -11.42701272	    -12.00298247	      1.54937077	     -4.46791349	     11.72783208	     31.70595383	    -10.01727227	      5.34061658	    -59.75341142	     -8.38004436	     -6.90910698	     41.01899342	      5.16654709	     10.48260472	     -3.21372277
